<?xml version="1.0" encoding="UTF-8" standalone="no"?>
<!-- Created with Inkscape (http://www.inkscape.org/) -->

<svg
   xmlns:dc="http://purl.org/dc/elements/1.1/"
   xmlns:cc="http://creativecommons.org/ns#"
   xmlns:rdf="http://www.w3.org/1999/02/22-rdf-syntax-ns#"
   xmlns:svg="http://www.w3.org/2000/svg"
   xmlns="http://www.w3.org/2000/svg"
   xmlns:sodipodi="http://sodipodi.sourceforge.net/DTD/sodipodi-0.dtd"
   xmlns:inkscape="http://www.inkscape.org/namespaces/inkscape"
   width="70"
   height="70"
   viewBox="0 0 18.520833 18.520834"
   version="1.1"
   id="svg8"
   inkscape:version="0.92.4 (5da689c313, 2019-01-14)"
   sodipodi:docname="git.svg">
  <defs
     id="defs2" />
  <sodipodi:namedview
     id="base"
     pagecolor="#ffffff"
     bordercolor="#666666"
     borderopacity="1.0"
     inkscape:pageopacity="0.0"
     inkscape:pageshadow="2"
     inkscape:zoom="3.959798"
     inkscape:cx="43.416005"
     inkscape:cy="1.4002014"
     inkscape:document-units="mm"
     inkscape:current-layer="layer1"
     showgrid="false"
     units="px"
     inkscape:window-width="1366"
     inkscape:window-height="705"
     inkscape:window-x="-8"
     inkscape:window-y="-8"
     inkscape:window-maximized="1" />
  <metadata
     id="metadata5">
    <rdf:RDF>
      <cc:Work
         rdf:about="">
        <dc:format>image/svg+xml</dc:format>
        <dc:type
           rdf:resource="http://purl.org/dc/dcmitype/StillImage" />
        <dc:title></dc:title>
      </cc:Work>
    </rdf:RDF>
  </metadata>
  <g
     inkscape:label="Camada 1"
     inkscape:groupmode="layer"
     id="layer1"
     transform="translate(0,-278.47886)">
    <g
       id="g817"
       transform="matrix(0.71387843,0,0,0.71387843,0.62084931,278.97056)">
      <path
         id="path815"
         data-old_color="#212121"
         class="active-path"
         data-original="#212121"
         d="M 12,0.5 C 5.37,0.5 0,5.78 0,12.292 c 0,5.211 3.438,9.63 8.205,11.188 0.6,0.111 0.82,-0.254 0.82,-0.567 0,-0.28 -0.01,-1.022 -0.015,-2.005 C 5.672,21.619 4.968,19.326 4.968,19.326 4.422,17.965 3.633,17.601 3.633,17.601 2.546,16.87 3.717,16.885 3.717,16.885 4.922,16.967 5.555,18.1 5.555,18.1 6.625,19.903 8.364,19.382 9.05,19.081 9.158,18.318 9.467,17.799 9.81,17.504 7.145,17.209 4.344,16.195 4.344,11.677 4.344,10.39 4.809,9.338 5.579,8.513 5.444,8.215 5.039,7.016 5.684,5.392 c 0,0 1.005,-0.316 3.3,1.209 0.96,-0.262 1.98,-0.392 3,-0.398 1.02,0.006 2.04,0.136 3,0.398 2.28,-1.525 3.285,-1.209 3.285,-1.209 0.645,1.624 0.24,2.823 0.12,3.121 0.765,0.825 1.23,1.877 1.23,3.164 0,4.53 -2.805,5.527 -5.475,5.817 0.42,0.354 0.81,1.077 0.81,2.182 0,1.578 -0.015,2.846 -0.015,3.229 0,0.309 0.21,0.678 0.825,0.56 C 20.565,21.917 24,17.495 24,12.292 24,5.78 18.627,0.5 12,0.5 Z"
         inkscape:connector-curvature="0"
         style="fill:#80d2f2" />
    </g>
  </g>
</svg>
