<?xml version="1.0" encoding="UTF-8" standalone="no"?>
<!-- Created with Inkscape (http://www.inkscape.org/) -->

<svg
   xmlns:dc="http://purl.org/dc/elements/1.1/"
   xmlns:cc="http://creativecommons.org/ns#"
   xmlns:rdf="http://www.w3.org/1999/02/22-rdf-syntax-ns#"
   xmlns:svg="http://www.w3.org/2000/svg"
   xmlns="http://www.w3.org/2000/svg"
   xmlns:sodipodi="http://sodipodi.sourceforge.net/DTD/sodipodi-0.dtd"
   xmlns:inkscape="http://www.inkscape.org/namespaces/inkscape"
   width="70"
   height="70"
   viewBox="0 0 18.520833 18.520834"
   version="1.1"
   id="svg8"
   inkscape:version="0.92.4 (5da689c313, 2019-01-14)"
   sodipodi:docname="mail.svg">
  <defs
     id="defs2" />
  <sodipodi:namedview
     id="base"
     pagecolor="#ffffff"
     bordercolor="#666666"
     borderopacity="1.0"
     inkscape:pageopacity="0.0"
     inkscape:pageshadow="2"
     inkscape:zoom="3.959798"
     inkscape:cx="84.453588"
     inkscape:cy="56.684589"
     inkscape:document-units="mm"
     inkscape:current-layer="g835"
     showgrid="false"
     units="px"
     inkscape:window-width="1366"
     inkscape:window-height="705"
     inkscape:window-x="-8"
     inkscape:window-y="-8"
     inkscape:window-maximized="1" />
  <metadata
     id="metadata5">
    <rdf:RDF>
      <cc:Work
         rdf:about="">
        <dc:format>image/svg+xml</dc:format>
        <dc:type
           rdf:resource="http://purl.org/dc/dcmitype/StillImage" />
        <dc:title></dc:title>
      </cc:Work>
    </rdf:RDF>
  </metadata>
  <g
     inkscape:label="Camada 1"
     inkscape:groupmode="layer"
     id="layer1"
     transform="translate(0,-278.47886)">
    <g
       id="g835"
       transform="matrix(0.03315339,0,0,0.03315339,0.8022537,279.33895)">
      <g
         id="g859"
         transform="matrix(1.0480451,0,0,1.0480451,-10.327215,-6.3713304)">
        <g
           id="g857">
	<g
   id="g855">
		<g
   id="g853">
			<path
   id="path849"
   data-old_color="#000000"
   class="active-path"
   data-original="#000000"
   d="m 10.688,95.156 c 70.27,59.511 193.572,164.209 229.812,196.854 4.865,4.406 10.083,6.646 15.5,6.646 5.406,0 10.615,-2.219 15.469,-6.604 36.271,-32.677 159.573,-137.385 229.844,-196.896 4.375,-3.698 5.042,-10.198 1.5,-14.719 C 494.625,69.99 482.417,64 469.333,64 H 42.667 c -13.083,0 -25.292,5.99 -33.479,16.438 -3.542,4.52 -2.875,11.02 1.5,14.718 z"
   inkscape:connector-curvature="0"
   style="fill:#80d2f2" />

			<path
   id="path851"
   data-old_color="#000000"
   class="active-path"
   data-original="#000000"
   d="m 505.813,127.406 c -3.781,-1.76 -8.229,-1.146 -11.375,1.542 C 416.51,195.01 317.052,279.688 285.76,307.885 268.197,323.739 243.822,323.739 226.218,307.864 192.864,277.812 81.176,182.864 17.562,128.947 14.395,126.259 9.937,125.666 6.187,127.405 2.417,129.156 0,132.927 0,137.083 v 268.25 C 0,428.865 19.135,448 42.667,448 H 469.334 C 492.865,448 512,428.865 512,405.333 v -268.25 c 0,-4.156 -2.417,-7.937 -6.187,-9.677 z"
   inkscape:connector-curvature="0"
   style="fill:#80d2f2" />

		</g>

	</g>

</g>
      </g>
    </g>
  </g>
</svg>
