<?xml version="1.0" encoding="UTF-8" standalone="no"?>
<!-- Created with Inkscape (http://www.inkscape.org/) -->

<svg
   xmlns:dc="http://purl.org/dc/elements/1.1/"
   xmlns:cc="http://creativecommons.org/ns#"
   xmlns:rdf="http://www.w3.org/1999/02/22-rdf-syntax-ns#"
   xmlns:svg="http://www.w3.org/2000/svg"
   xmlns="http://www.w3.org/2000/svg"
   xmlns:sodipodi="http://sodipodi.sourceforge.net/DTD/sodipodi-0.dtd"
   xmlns:inkscape="http://www.inkscape.org/namespaces/inkscape"
   width="70"
   height="70"
   viewBox="0 0 18.520833 18.520834"
   version="1.1"
   id="svg8"
   inkscape:version="0.92.4 (5da689c313, 2019-01-14)"
   sodipodi:docname="twitter.svg">
  <defs
     id="defs2" />
  <sodipodi:namedview
     id="base"
     pagecolor="#ffffff"
     bordercolor="#666666"
     borderopacity="1.0"
     inkscape:pageopacity="0.0"
     inkscape:pageshadow="2"
     inkscape:zoom="5.6"
     inkscape:cx="62.968104"
     inkscape:cy="47.542227"
     inkscape:document-units="mm"
     inkscape:current-layer="g835"
     showgrid="false"
     units="px"
     inkscape:window-width="1366"
     inkscape:window-height="705"
     inkscape:window-x="-8"
     inkscape:window-y="-8"
     inkscape:window-maximized="1" />
  <metadata
     id="metadata5">
    <rdf:RDF>
      <cc:Work
         rdf:about="">
        <dc:format>image/svg+xml</dc:format>
        <dc:type
           rdf:resource="http://purl.org/dc/dcmitype/StillImage" />
        <dc:title></dc:title>
      </cc:Work>
    </rdf:RDF>
  </metadata>
  <g
     inkscape:label="Camada 1"
     inkscape:groupmode="layer"
     id="layer1"
     transform="translate(0,-278.47886)">
    <g
       id="g835"
       transform="matrix(0.03315339,0,0,0.03315339,0.8022537,279.33895)">
      <g
         id="g880"
         transform="matrix(1.0672436,0,0,1.0672436,-20.345554,-11.197605)">
        <g
           id="g878">
	<g
   id="g876">
		<path
   id="path874"
   data-old_color="#000000"
   class="active-path"
   data-original="#000000"
   d="m 512,97.248 c -19.04,8.352 -39.328,13.888 -60.48,16.576 21.76,-12.992 38.368,-33.408 46.176,-58.016 -20.288,12.096 -42.688,20.64 -66.56,25.408 C 411.872,60.704 384.416,48 354.464,48 296.352,48 249.568,95.168 249.568,152.992 c 0,8.32 0.704,16.32 2.432,23.936 C 164.736,172.672 87.52,130.848 35.648,67.136 26.592,82.848 21.28,100.832 21.28,120.192 c 0,36.352 18.72,68.576 46.624,87.232 -16.864,-0.32 -33.408,-5.216 -47.424,-12.928 0,0.32 0,0.736 0,1.152 0,51.008 36.384,93.376 84.096,103.136 -8.544,2.336 -17.856,3.456 -27.52,3.456 -6.72,0 -13.504,-0.384 -19.872,-1.792 13.6,41.568 52.192,72.128 98.08,73.12 -35.712,27.936 -81.056,44.768 -130.144,44.768 -8.608,0 -16.864,-0.384 -25.12,-1.44 C 46.496,446.88 101.6,464 161.024,464 c 193.152,0 298.752,-160 298.752,-298.688 0,-4.64 -0.16,-9.12 -0.384,-13.568 C 480.224,136.96 497.728,118.496 512,97.248 Z"
   inkscape:connector-curvature="0"
   style="fill:#80d2f2" />

	</g>

</g>
      </g>
    </g>
  </g>
</svg>
